<svg width="628" height="331" viewBox="0 0 628 331" fill="none" xmlns="http://www.w3.org/2000/svg">
<mask id="mask0_0_482" style="mask-type:alpha" maskUnits="userSpaceOnUse" x="0" y="0" width="628" height="331">
<rect width="628" height="331" fill="#C4C4C4"/>
</mask>
<g mask="url(#mask0_0_482)">
<path opacity="0.07" d="M383.414 99.072L40.0798 32L38.2163 40.3855C26.1027 104.196 64.7691 166.612 126.727 184.781L61.5134 172.201L60.1151 179.654C48.4636 235.547 85.2665 289.115 142.567 300.291C147.224 405.093 235.737 488.003 344.283 488.003C456.087 488.003 545.998 399.969 545.998 291.908C545.533 196.422 476.119 117.238 383.414 99.072ZM422.08 260.701L331.704 347.337C327.512 350.595 322.852 352.458 318.195 352.458C313.538 352.458 308.878 350.595 304.686 347.337L261.825 306.345C254.371 298.893 226.447 253.394 221.507 262.704C213.182 278.393 236.787 312.635 244.24 320.088L323.648 371.232L454.927 268.466C462.381 261.014 416.025 227.627 423.479 235.079C430.932 242.999 430.932 254.643 422.08 260.701Z" fill="#0D1B1E"/>
</g>
</svg>
